<?xml version="1.0" standalone="no"?>
<!DOCTYPE svg PUBLIC "-//W3C//DTD SVG 20010904//EN"
 "http://www.w3.org/TR/2001/REC-SVG-20010904/DTD/svg10.dtd">
<svg version="1.0" xmlns="http://www.w3.org/2000/svg"
 width="32.000000pt" height="32.000000pt" viewBox="0 0 32.000000 32.000000"
 preserveAspectRatio="xMidYMid meet">

<g transform="translate(0.000000,32.000000) scale(0.100000,-0.100000)"
fill="#000000" stroke="none">
<path d="M55 225 l-60 -55 60 -55 c33 -30 63 -54 68 -55 4 0 7 14 7 30 0 25 4
30 25 30 36 0 95 -27 127 -57 33 -32 43 -26 34 22 -13 66 -94 135 -161 135
-21 0 -25 5 -25 30 0 17 -3 30 -7 30 -5 -1 -35 -25 -68 -55z"/>
</g>
</svg>
